<svg xmlns="http://www.w3.org/2000/svg" viewBox="0 0 300 350" enable-background="new 0 0 300 350"><path fill="#28947D" d="M279.37 0h-129.37v350c93.396-8.94 150-69.893 150-69.893v-280.107h-20.63z"/><path fill="#F7FA41" d="M20.63 0h129.37v350c-93.396-8.94-150-69.893-150-69.893v-280.107h20.63z"/><path fill="#D0D900" d="M20.63 20.734v250.568c4.399 3.998 11.354 9.883 20.629 16.408v-196.416c13.003 10.645 36.143 26.729 67.482 37.271v192.225c6.578 1.998 13.458 3.762 20.629 5.212v-305.268h-108.74zm88.111 79.949c-31.339-10.542-54.479-26.626-67.482-37.271v-21.944h67.482v59.215z"/><path fill="#237864" d="M170.63 20.734h108.741v250.538c-6.015 5.449-16.742 14.383-31.495 23.611-13.73 8.589-28.236 15.763-43.114 21.324-11.178 4.178-22.594 7.449-34.133 9.787v-305.26z"/><path fill="#1C6554" d="M188 301h6.804c1.326 0 2.654-.7 3.966-1.19 10.95-4.093 21.683-8.81 32.023-14.81h-42.793v16zM188 271h64.979c3.175-3 6.021-5.184 9.021-7.637v-9.363h-74v17zM188 223h74v17h-74zM188 192h74v17h-74zM188 161h74v17h-74zM188 131h74v16h-74zM188 100h74v16h-74zM188 69h74v16h-74zM188 38h74v16h-74z"/></svg>